<?xml version="1.0" encoding="UTF-8" standalone="no"?>
<svg
   xmlns:dc="http://purl.org/dc/elements/1.1/"
   xmlns:cc="http://creativecommons.org/ns#"
   xmlns:rdf="http://www.w3.org/1999/02/22-rdf-syntax-ns#"
   xmlns:svg="http://www.w3.org/2000/svg"
   xmlns="http://www.w3.org/2000/svg"
   xmlns:sodipodi="http://sodipodi.sourceforge.net/DTD/sodipodi-0.dtd"
   xmlns:inkscape="http://www.inkscape.org/namespaces/inkscape"
   viewBox="0 0 88.32 129.93"
   id="svg4160"
   version="1.1"
   inkscape:version="0.91 r13725"
   sodipodi:docname="logo.svg">
  <metadata
     id="metadata4182">
    <rdf:RDF>
      <cc:Work
         rdf:about="">
        <dc:format>image/svg+xml</dc:format>
        <dc:type
           rdf:resource="http://purl.org/dc/dcmitype/StillImage" />
      </cc:Work>
    </rdf:RDF>
  </metadata>
  <sodipodi:namedview
     pagecolor="#ffffff"
     bordercolor="#666666"
     borderopacity="1"
     objecttolerance="10"
     gridtolerance="10"
     guidetolerance="10"
     inkscape:pageopacity="0"
     inkscape:pageshadow="2"
     inkscape:window-width="1920"
     inkscape:window-height="1027"
     id="namedview4180"
     showgrid="false"
     inkscape:zoom="7.265451"
     inkscape:cx="10.228399"
     inkscape:cy="44.787369"
     inkscape:window-x="-8"
     inkscape:window-y="-8"
     inkscape:window-maximized="1"
     inkscape:current-layer="layer1" />
  <defs
     id="defs4162">
    <style
       id="style4164">.cls-1{fill:url(#New_Gradient_Swatch_1);}.cls-2{fill:#980200;}.cls-3{fill:red;}</style>
    <linearGradient
       id="New_Gradient_Swatch_1"
       x1="2.71"
       y1="20.04"
       x2="69.77"
       y2="20.04"
       gradientUnits="userSpaceOnUse">
      <stop
         offset="0"
         stop-color="#12b212"
         id="stop4167" />
      <stop
         offset="1"
         stop-color="lime"
         id="stop4169" />
    </linearGradient>
  </defs>
  <title
     id="title4171">NewVortex</title>
  <g
     inkscape:groupmode="layer"
     id="layer1"
     inkscape:label="Layer 1"
     style="display:inline">
    <g
       transform="matrix(0.34729427,0,0,0.34729427,-138.22246,14.336393)"
       id="g4415">
      <g
         transform="matrix(1.25,0,0,-1.25,570.83585,149.93734)"
         id="g4154">
        <path
           inkscape:connector-curvature="0"
           id="path4156"
           style="fill:#ef2e32;fill-opacity:1;fill-rule:nonzero;stroke:none"
           d="m 0,0 c -1.846,0 -3.343,-1.497 -3.343,-3.343 l 0,-20.771 c -0.002,0.024 -0.002,0.049 -0.004,0.072 -0.107,-0.908 -0.878,-1.612 -1.814,-1.612 -0.927,0 -1.69,0.691 -1.81,1.585 l 0,29.585 c 0,1.846 -1.496,3.343 -3.342,3.343 -1.846,0 -3.343,-1.497 -3.343,-3.343 l 0,-6.957 c -0.111,-0.903 -0.879,-1.603 -1.813,-1.603 -0.936,0 -1.707,0.705 -1.814,1.612 -10e-4,-0.006 0,-0.012 -10e-4,-0.018 l 0,15.33 c 0,1.846 -1.497,3.343 -3.343,3.343 -1.846,0 -3.343,-1.497 -3.343,-3.343 l 0,-44.397 c -0.109,-0.905 -0.879,-1.607 -1.813,-1.607 -0.937,0 -1.707,0.704 -1.815,1.612 l 0,50.525 c 0,1.846 -1.497,3.343 -3.342,3.343 -1.846,0 -3.343,-1.497 -3.343,-3.343 l 0,-92.071 c 0,-1.846 1.497,-3.343 3.343,-3.343 1.845,0 3.342,1.497 3.342,3.343 l 0,18.046 c 0.108,0.907 0.878,1.612 1.815,1.612 0.934,0 1.704,-0.702 1.813,-1.607 l 0,-5.976 c 0,-1.846 1.497,-3.343 3.343,-3.343 1.846,0 3.343,1.497 3.343,3.343 l 0,40.379 c 10e-4,-0.006 0,-0.013 10e-4,-0.019 0.107,0.908 0.878,1.613 1.814,1.613 0.934,0 1.702,-0.7 1.813,-1.604 l 0,-30.341 c 0,-1.846 1.497,-3.342 3.343,-3.342 1.846,0 3.342,1.496 3.342,3.342 l 0,13.38 c 0.12,0.894 0.883,1.585 1.81,1.585 0.936,0 1.707,-0.704 1.814,-1.612 0.002,0.023 0.002,0.048 0.004,0.072 l 0,-4.044 c 0,-1.846 1.497,-3.343 3.343,-3.343 1.847,0 3.343,1.497 3.343,3.343 l 0,37.231 C 3.343,-1.497 1.847,0 0,0" />
      </g>
      <g
         transform="matrix(1.25,0,0,-1.25,519.26835,120.74234)"
         id="g4158">
        <path
           inkscape:connector-curvature="0"
           id="path4160"
           style="fill:#9f9f9f;fill-opacity:1;fill-rule:nonzero;stroke:none"
           d="m 0,0 c -1.846,0 -3.343,-1.497 -3.343,-3.343 l 0,-17.293 c -10e-4,0.006 0,0.012 -10e-4,0.019 -0.107,-0.908 -0.878,-1.613 -1.814,-1.613 -0.933,0 -1.7,0.699 -1.813,1.601 l 0,11.153 c 0,1.846 -1.496,3.343 -3.342,3.343 -1.846,0 -3.343,-1.497 -3.343,-3.343 l 0,-31.593 c -0.115,-0.9 -0.88,-1.597 -1.811,-1.597 -0.936,0 -1.708,0.705 -1.815,1.612 -0.001,-0.01 -0.001,-0.021 -0.002,-0.032 l 0,23.246 c 0,1.846 -1.496,3.343 -3.343,3.343 -1.846,0 -3.343,-1.497 -3.343,-3.343 l 0,-14.529 c -0.001,0.059 -0.004,0.118 -0.01,0.176 -0.108,-0.908 -0.878,-1.612 -1.815,-1.612 -0.917,0 -1.671,0.676 -1.803,1.555 l 0,5.551 c 0,1.846 -1.497,3.343 -3.342,3.343 -1.846,0 -3.343,-1.497 -3.343,-3.343 l 0,-37.231 c 0,-1.846 1.497,-3.342 3.343,-3.342 1.845,0 3.342,1.496 3.342,3.342 l 0,24.49 c 0.132,0.879 0.886,1.556 1.803,1.556 0.937,0 1.707,-0.705 1.815,-1.613 0.006,0.058 0.009,0.117 0.01,0.177 l 0,-33.991 c 0,-1.846 1.497,-3.342 3.343,-3.342 1.847,0 3.343,1.496 3.343,3.342 l 0,8.789 c 10e-4,-0.011 10e-4,-0.022 0.002,-0.033 0.107,0.908 0.879,1.613 1.815,1.613 0.931,0 1.696,-0.697 1.811,-1.597 l 0,-18.8 c 0,-1.846 1.497,-3.343 3.343,-3.343 1.846,0 3.342,1.497 3.342,3.343 l 0,50.172 c 0.113,0.903 0.88,1.602 1.813,1.602 0.936,0 1.707,-0.705 1.814,-1.613 10e-4,0.006 0,0.012 10e-4,0.019 l 0,-62.255 c 0,-1.846 1.497,-3.343 3.343,-3.343 1.846,0 3.343,1.497 3.343,3.343 l 0,92.071 C 3.343,-1.497 1.846,0 0,0" />
      </g>
    </g>
    <g
       id="g4162"
       transform="matrix(0.43411783,0,0,-0.43411783,12.611735,116.67592)"
       style="fill:#9f9f9f;fill-opacity:1">
      <path
         inkscape:connector-curvature="0"
         d="m 0,0 c 0.326,0 0.63,-0.063 0.912,-0.187 0.282,-0.128 0.53,-0.294 0.746,-0.502 0.215,-0.208 0.385,-0.457 0.512,-0.747 0.125,-0.288 0.188,-0.596 0.188,-0.922 0,-0.624 -0.244,-1.188 -0.734,-1.693 -3.31,-2.641 -7.041,-3.962 -11.196,-3.962 -4.927,0 -9.126,1.737 -12.599,5.209 -3.473,3.472 -5.209,7.671 -5.209,12.598 0,4.912 1.736,9.105 5.209,12.577 3.486,3.487 7.688,5.232 12.599,5.232 4.214,0 8.02,-1.389 11.419,-4.164 0.416,-0.4 0.624,-0.942 0.624,-1.624 0,-0.341 -0.06,-0.654 -0.178,-0.935 C 2.173,20.598 2.007,20.35 1.791,20.134 1.576,19.919 1.324,19.752 1.034,19.633 0.745,19.515 0.437,19.455 0.11,19.455 c -0.578,0 -1.12,0.223 -1.624,0.668 -1.128,0.891 -2.371,1.572 -3.728,2.048 -1.359,0.475 -2.802,0.713 -4.33,0.713 -3.621,0 -6.716,-1.284 -9.282,-3.851 -2.539,-2.538 -3.807,-5.618 -3.807,-9.239 0,-3.635 1.268,-6.722 3.807,-9.26 2.552,-2.552 5.646,-3.828 9.282,-3.828 3.101,0 5.832,0.958 8.192,2.872 C -0.995,-0.155 -0.535,-0.014 0,0"
         style="fill:#9f9f9f;fill-opacity:1;fill-rule:nonzero;stroke:none"
         id="path4164" />
    </g>
    <g
       id="g4166"
       transform="matrix(0.43411783,0,0,-0.43411783,23.612629,106.74166)"
       style="fill:#9f9f9f;fill-opacity:1">
      <path
         inkscape:connector-curvature="0"
         d="m 0,0 c -1.841,0 -3.521,-0.32 -5.043,-0.958 -1.52,-0.638 -2.927,-1.603 -4.218,-2.893 -1.291,-1.292 -2.251,-2.694 -2.883,-4.208 -0.629,-1.512 -0.946,-3.19 -0.946,-5.031 0,-3.62 1.277,-6.707 3.829,-9.26 2.552,-2.551 5.639,-3.828 9.261,-3.828 3.62,0 6.707,1.277 9.26,3.828 2.552,2.553 3.828,5.64 3.828,9.26 0,3.607 -1.276,6.687 -3.828,9.239 C 6.691,-1.284 3.604,0 0,0 m 17.807,-13.09 c 0,-4.911 -1.745,-9.111 -5.231,-12.597 C 9.104,-29.16 4.911,-30.896 0,-30.896 c -4.927,0 -9.127,1.736 -12.6,5.209 -3.472,3.471 -5.209,7.67 -5.209,12.597 0,4.912 1.737,9.106 5.209,12.577 3.487,3.488 7.687,5.232 12.6,5.232 4.896,0 9.089,-1.744 12.576,-5.232 1.75,-1.751 3.061,-3.666 3.929,-5.742 0.868,-2.078 1.302,-4.356 1.302,-6.835"
         style="fill:#9f9f9f;fill-opacity:1;fill-rule:nonzero;stroke:none"
         id="path4168" />
    </g>
    <g
       id="g4170"
       transform="matrix(0.43411783,0,0,-0.43411783,36.77522,106.74166)"
       style="fill:#9f9f9f;fill-opacity:1">
      <path
         inkscape:connector-curvature="0"
         d="m 0,0 0,-12.443 6.232,0 c 0.861,0 1.669,0.163 2.427,0.489 0.756,0.326 1.413,0.776 1.969,1.347 0.558,0.571 0.998,1.232 1.325,1.981 0.326,0.749 0.489,1.547 0.489,2.393 0,0.86 -0.163,1.67 -0.489,2.426 -0.327,0.756 -0.771,1.416 -1.336,1.981 -0.563,0.564 -1.223,1.01 -1.981,1.336 C 7.879,-0.164 7.077,0 6.232,0 L 0,0 Z m -4.719,-28.536 0,30.894 c 0,0.327 0.059,0.636 0.178,0.924 0.118,0.29 0.285,0.542 0.501,0.758 0.214,0.215 0.464,0.381 0.746,0.5 0.281,0.119 0.592,0.179 0.934,0.179 l 8.592,0 c 1.499,0 2.912,-0.29 4.242,-0.868 1.326,-0.579 2.484,-1.367 3.472,-2.361 0.987,-0.994 1.769,-2.154 2.348,-3.482 0.578,-1.328 0.868,-2.742 0.868,-4.241 0,-0.98 -0.123,-1.934 -0.367,-2.861 -0.246,-0.927 -0.608,-1.802 -1.091,-2.626 -0.483,-0.824 -1.084,-1.588 -1.804,-2.293 -0.719,-0.705 -1.554,-1.324 -2.504,-1.859 l 7.101,-11.374 c 0.252,-0.416 0.378,-0.846 0.378,-1.29 0,-0.342 -0.059,-0.654 -0.178,-0.937 -0.118,-0.281 -0.286,-0.53 -0.5,-0.745 -0.216,-0.215 -0.468,-0.383 -0.757,-0.501 -0.29,-0.119 -0.597,-0.177 -0.923,-0.177 -0.832,0 -1.507,0.385 -2.027,1.158 l -7.857,12.576 -6.633,0 0,-11.374 c 0,-0.654 -0.23,-1.21 -0.69,-1.67 -0.46,-0.461 -1.016,-0.69 -1.67,-0.69 -0.653,0 -1.21,0.229 -1.668,0.69 -0.46,0.46 -0.691,1.016 -0.691,1.67"
         style="fill:#9f9f9f;fill-opacity:1;fill-rule:nonzero;stroke:none"
         id="path4172" />
    </g>
    <g
       id="g4174"
       transform="matrix(0.43411783,0,0,-0.43411783,57.646391,106.74166)"
       style="fill:#9f9f9f;fill-opacity:1">
      <path
         inkscape:connector-curvature="0"
         d="m 0,0 -8.793,0 0,-28.536 c 0,-0.654 -0.23,-1.21 -0.69,-1.67 -0.46,-0.461 -1.017,-0.69 -1.669,-0.69 -0.654,0 -1.21,0.229 -1.67,0.69 -0.46,0.46 -0.69,1.016 -0.69,1.67 l 0,28.536 -8.793,0 c -0.652,0 -1.209,0.229 -1.669,0.689 -0.46,0.46 -0.69,1.017 -0.69,1.669 0,0.654 0.23,1.21 0.69,1.67 0.46,0.46 1.017,0.691 1.669,0.691 L 0,4.719 c 0.652,0 1.208,-0.231 1.668,-0.691 0.46,-0.46 0.69,-1.016 0.69,-1.67 0,-0.652 -0.23,-1.209 -0.69,-1.669 C 1.208,0.229 0.652,0 0,0"
         style="fill:#9f9f9f;fill-opacity:1;fill-rule:nonzero;stroke:none"
         id="path4176" />
    </g>
    <g
       id="g4178"
       transform="matrix(0.43411783,0,0,-0.43411783,71.554691,118.10586)"
       style="fill:#9f9f9f;fill-opacity:1">
      <path
         inkscape:connector-curvature="0"
         d="m 0,0 c 0.652,0 1.209,-0.23 1.669,-0.69 0.46,-0.46 0.69,-1.016 0.69,-1.668 0,-0.655 -0.23,-1.21 -0.69,-1.67 C 1.209,-4.489 0.652,-4.719 0,-4.719 l -20.591,0 c -0.34,0 -0.652,0.059 -0.933,0.178 -0.283,0.118 -0.531,0.286 -0.747,0.501 -0.215,0.215 -0.382,0.464 -0.5,0.745 -0.12,0.282 -0.178,0.595 -0.178,0.937 l 0,30.894 c 0,0.326 0.058,0.636 0.178,0.924 0.118,0.29 0.285,0.542 0.5,0.758 0.216,0.215 0.464,0.381 0.747,0.5 0.281,0.119 0.593,0.178 0.933,0.178 l 20.591,0 c 0.652,0 1.209,-0.23 1.669,-0.69 0.46,-0.46 0.69,-1.017 0.69,-1.67 0,-0.652 -0.23,-1.209 -0.69,-1.669 C 1.209,26.407 0.652,26.178 0,26.178 l -18.23,0 0,-10.73 13.087,0 c 0.655,0 1.21,-0.23 1.67,-0.69 0.46,-0.46 0.691,-1.016 0.691,-1.67 0,-0.652 -0.231,-1.208 -0.691,-1.669 -0.46,-0.46 -1.015,-0.69 -1.67,-0.69 l -13.087,0 L -18.23,0 0,0 Z"
         style="fill:#9f9f9f;fill-opacity:1;fill-rule:nonzero;stroke:none"
         id="path4180" />
    </g>
    <g
       id="g4182"
       transform="matrix(0.43411783,0,0,-0.43411783,77.239343,119.85462)"
       style="fill:#9f9f9f;fill-opacity:1">
      <path
         inkscape:connector-curvature="0"
         d="m 0,0 c -0.46,-0.461 -1.017,-0.69 -1.67,-0.69 -0.652,0 -1.209,0.225 -1.669,0.678 -0.46,0.453 -0.689,1.006 -0.689,1.658 0,0.564 0.17,1.062 0.511,1.492 L 7.367,17.116 -3.584,31.185 c -0.282,0.401 -0.423,0.861 -0.423,1.379 0,0.654 0.231,1.21 0.691,1.67 0.46,0.46 1.016,0.691 1.669,0.691 0.712,0 1.269,-0.231 1.669,-0.691 L 10.373,20.969 20.724,34.234 c 0.415,0.46 0.971,0.691 1.67,0.691 0.652,0 1.204,-0.231 1.658,-0.691 0.452,-0.46 0.677,-1.016 0.677,-1.67 0,-0.518 -0.139,-0.978 -0.421,-1.379 L 13.378,17.116 24.264,3.138 c 0.326,-0.43 0.488,-0.928 0.488,-1.492 0,-0.652 -0.227,-1.205 -0.679,-1.658 -0.453,-0.453 -1.006,-0.678 -1.658,-0.678 -0.786,0 -1.402,0.282 -1.848,0.845 L 10.373,13.266 0,0 Z"
         style="fill:#9f9f9f;fill-opacity:1;fill-rule:nonzero;stroke:none"
         id="path4184" />
    </g>
    <path
       inkscape:connector-curvature="0"
       id="path4855"
       style="font-variant:normal;font-weight:bold;font-stretch:normal;font-size:medium;font-family:Comfortaa;-inkscape-font-specification:Comfortaa-Bold;writing-mode:lr-tb;fill:#ef2e32;fill-opacity:1;fill-rule:nonzero;stroke:none"
       d="m 28.88997,127.69384 q 0,0.96059 -0.861215,1.55129 -0.861216,0.58518 -2.3573,0.58518 -0.828092,0 -1.501607,-0.15457 -0.673514,-0.15458 -1.08204,-0.34227 l 0,-1.6341 0.182181,0 q 0.149057,0.10488 0.342278,0.23185 0.198742,0.12146 0.557581,0.26499 0.309155,0.12698 0.701118,0.22083 0.391963,0.0883 0.839133,0.0883 0.585184,0 0.866735,-0.12698 0.281552,-0.13249 0.281552,-0.38644 0,-0.22634 -0.165618,-0.32572 -0.165618,-0.10488 -0.62935,-0.19873 -0.220825,-0.0497 -0.601747,-0.1049 -0.375401,-0.0607 -0.684555,-0.14353 -0.844653,-0.22083 -1.253179,-0.68456 -0.408525,-0.46926 -0.408525,-1.16485 0,-0.89434 0.844654,-1.48504 0.850173,-0.59623 2.318656,-0.59623 0.695596,0 1.330466,0.14354 0.640391,0.13801 0.99923,0.29811 l 0,1.56786 -0.171138,0 q -0.441649,-0.30364 -1.010271,-0.49133 -0.563103,-0.19324 -1.142767,-0.19324 -0.480293,0 -0.811529,0.13251 -0.325716,0.13249 -0.325716,0.3754 0,0.22082 0.149056,0.33676 0.149057,0.11592 0.701117,0.23186 0.303633,0.0607 0.651432,0.12146 0.353319,0.0552 0.706638,0.14353 0.783927,0.20426 1.159328,0.64591 0.375402,0.43612 0.375402,1.09308 z" />
    <path
       inkscape:connector-curvature="0"
       id="path4857"
       style="font-variant:normal;font-weight:bold;font-stretch:normal;font-size:medium;font-family:Comfortaa;-inkscape-font-specification:Comfortaa-Bold;writing-mode:lr-tb;fill:#ef2e32;fill-opacity:1;fill-rule:nonzero;stroke:none"
       d="m 36.308835,126.92647 -4.548983,0 q 0.04416,0.72872 0.55206,1.11517 0.513417,0.38644 1.507127,0.38644 0.62935,0 1.220055,-0.22634 0.590705,-0.22635 0.932983,-0.48582 l 0.220824,0 0,1.59546 q -0.673514,0.27051 -1.26974,0.39196 -0.596226,0.12146 -1.319426,0.12146 -1.865966,0 -2.859676,-0.83914 -0.99371,-0.83914 -0.99371,-2.39042 0,-1.53473 0.938505,-2.42906 0.944024,-0.89987 2.583645,-0.89987 1.512647,0 2.274491,0.76737 0.761845,0.76183 0.761845,2.1972 l 0,0.69559 z m -1.976379,-1.16484 q -0.01656,-0.62383 -0.309155,-0.93851 -0.292592,-0.31467 -0.9109,-0.31467 -0.574144,0 -0.944024,0.29812 -0.369881,0.2981 -0.414046,0.95506 l 2.578125,0 z" />
    <path
       inkscape:connector-curvature="0"
       id="path4859"
       style="font-variant:normal;font-weight:bold;font-stretch:normal;font-size:medium;font-family:Comfortaa;-inkscape-font-specification:Comfortaa-Bold;writing-mode:lr-tb;fill:#ef2e32;fill-opacity:1;fill-rule:nonzero;stroke:none"
       d="m 41.359401,129.8248 q -0.811529,0 -1.485044,-0.19322 -0.667994,-0.19323 -1.164849,-0.59623 -0.491334,-0.40301 -0.761843,-1.01579 -0.270511,-0.61279 -0.270511,-1.43536 0,-0.86674 0.287072,-1.49609 0.292592,-0.62935 0.811529,-1.04339 0.502376,-0.39197 1.159329,-0.57415 0.656952,-0.18218 1.36359,-0.18218 0.634871,0 1.170369,0.13802 0.5355,0.13801 0.999232,0.35884 l 0,1.69483 -0.281552,0 q -0.115933,-0.0994 -0.281551,-0.23187 -0.160098,-0.1325 -0.397484,-0.25946 -0.226345,-0.12146 -0.496855,-0.19875 -0.27051,-0.0828 -0.629349,-0.0828 -0.794968,0 -1.225576,0.5079 -0.425087,0.50237 -0.425087,1.36911 0,0.89434 0.436129,1.35806 0.441649,0.46374 1.247658,0.46374 0.3754,0 0.673514,-0.0828 0.303633,-0.0883 0.502375,-0.20426 0.187701,-0.11042 0.331237,-0.23187 0.143536,-0.12145 0.264989,-0.23738 l 0.281552,0 0,1.69483 q -0.469253,0.22081 -0.982669,0.34779 -0.507897,0.1325 -1.126205,0.1325 z" />
    <path
       inkscape:connector-curvature="0"
       id="path4861"
       style="font-variant:normal;font-weight:bold;font-stretch:normal;font-size:medium;font-family:Comfortaa;-inkscape-font-specification:Comfortaa-Bold;writing-mode:lr-tb;fill:#ef2e32;fill-opacity:1;fill-rule:nonzero;stroke:none"
       d="m 51.40884,129.65918 -1.98742,0 0,-0.68456 q -0.552062,0.41956 -1.010272,0.64039 -0.458211,0.2153 -1.093081,0.2153 -1.026833,0 -1.584415,-0.5907 -0.55206,-0.59071 -0.55206,-1.74452 l 0,-4.03556 1.99846,0 0,3.07498 q 0,0.46925 0.0276,0.78393 0.03312,0.30915 0.143536,0.51342 0.104891,0.20426 0.314675,0.29811 0.215304,0.0939 0.596226,0.0939 0.253947,0 0.563102,-0.0939 0.309154,-0.0938 0.596226,-0.27603 l 0,-4.39441 1.98742,0 0,6.19965 z" />
    <path
       inkscape:connector-curvature="0"
       id="path4863"
       style="font-variant:normal;font-weight:bold;font-stretch:normal;font-size:medium;font-family:Comfortaa;-inkscape-font-specification:Comfortaa-Bold;writing-mode:lr-tb;fill:#ef2e32;fill-opacity:1;fill-rule:nonzero;stroke:none"
       d="m 57.617899,125.3531 -0.17666,0 q -0.126974,-0.0442 -0.408524,-0.0662 -0.281551,-0.0221 -0.469252,-0.0221 -0.425087,0 -0.750803,0.0552 -0.325717,0.0552 -0.701118,0.1877 l 0,4.1515 -1.987419,0 0,-6.19965 1.987419,0 0,0.91091 q 0.656953,-0.56311 1.142766,-0.74529 0.485814,-0.1877 0.894339,-0.1877 0.104891,0 0.237387,0.006 0.132494,0.006 0.231865,0.0166 l 0,1.89357 z" />
    <path
       inkscape:connector-curvature="0"
       id="path4865"
       style="font-variant:normal;font-weight:bold;font-stretch:normal;font-size:medium;font-family:Comfortaa;-inkscape-font-specification:Comfortaa-Bold;writing-mode:lr-tb;fill:#ef2e32;fill-opacity:1;fill-rule:nonzero;stroke:none"
       d="m 65.176993,126.92647 -4.548983,0 q 0.04417,0.72872 0.552062,1.11517 0.513417,0.38644 1.507127,0.38644 0.629348,0 1.220054,-0.22634 0.590705,-0.22635 0.932983,-0.48582 l 0.220824,0 0,1.59546 q -0.673515,0.27051 -1.26974,0.39196 -0.596226,0.12146 -1.319426,0.12146 -1.865966,0 -2.859675,-0.83914 -0.99371,-0.83914 -0.99371,-2.39042 0,-1.53473 0.938503,-2.42906 0.944024,-0.89987 2.583646,-0.89987 1.512647,0 2.274491,0.76737 0.761844,0.76183 0.761844,2.1972 l 0,0.69559 z m -1.976378,-1.16484 q -0.01656,-0.62383 -0.309154,-0.93851 -0.292592,-0.31467 -0.9109,-0.31467 -0.574144,0 -0.944025,0.29812 -0.369881,0.2981 -0.414046,0.95506 l 2.578125,0 z" />
  </g>
</svg>
